<svg width="50" height="42" viewBox="0 0 50 42" fill="none" xmlns="http://www.w3.org/2000/svg">
<path d="M47.4703 27.1852C46.2262 25.9416 44.6339 25.1058 42.9047 24.7885C41.1752 24.4713 39.3902 24.6875 37.7864 25.4087C37.8357 24.214 37.6371 23.0218 37.203 21.9077C36.7692 20.7935 36.1091 19.7815 35.2649 18.9354H35.2608L39.352 14.8406C40.161 14.0352 40.8035 13.0779 41.2425 12.0236C41.6814 10.9693 41.9082 9.83866 41.9099 8.69648C41.9115 7.55431 41.6882 6.42302 41.2525 5.36741C40.8166 4.31178 40.1772 3.35259 39.3704 2.54477C38.5638 1.73693 37.6058 1.09633 36.5513 0.65966C35.4969 0.222989 34.3668 -0.00117528 33.2257 4.63379e-06C32.0846 0.00118455 30.9549 0.227688 29.9015 0.666539C28.8481 1.10539 27.8913 1.74796 27.0863 2.55747C26.133 3.50805 25.4178 4.67076 24.9991 5.95071C24.5767 4.71396 23.8806 3.58864 22.9631 2.65868C22.0456 1.72871 20.93 1.01811 19.6998 0.579862C18.4696 0.141615 17.1564 -0.0129638 15.8582 0.127653C14.56 0.26827 13.3102 0.700455 12.2022 1.39197C11.0941 2.08349 10.1563 3.0165 9.45872 4.1214C8.76114 5.22631 8.3218 6.4746 8.17342 7.77317C8.02506 9.07177 8.1715 10.3871 8.60185 11.6211C9.03219 12.8552 9.73533 13.976 10.6588 14.9001L14.7504 18.9984L14.7471 18.9965C13.9174 19.8269 13.2653 20.8176 12.8305 21.9083C12.3958 22.9991 12.1875 24.1671 12.2184 25.341C10.7751 24.6944 9.18256 24.4551 7.61311 24.6488C6.04366 24.8425 4.55697 25.4619 3.31375 26.44C2.07053 27.4184 1.11811 28.7181 0.559425 30.1988C0.000743393 31.6795 -0.142933 33.285 0.143928 34.8416C0.430789 36.3983 1.13727 37.8467 2.18701 39.0306C3.23673 40.2143 4.58977 41.0883 6.09983 41.5582C7.6099 42.028 9.21956 42.0759 10.7548 41.6962C12.29 41.3168 13.6923 40.5244 14.8102 39.4049L18.8421 35.3753C20.4694 37.0039 22.6764 37.9187 24.9774 37.9187C27.2784 37.9187 29.4854 37.0039 31.1127 35.3753L35.1981 39.4663C36.826 41.0906 39.0314 42.0018 41.3299 42C43.6285 41.9984 45.8324 41.0838 47.4578 39.4571C49.0835 37.8305 49.9977 35.6247 50 33.3239C50.0022 31.0231 49.0925 28.8157 47.4703 27.1856V27.1852ZM29.1286 4.60315C30.2137 3.51823 31.6849 2.90884 33.2185 2.90884C34.7524 2.90884 36.2236 3.51823 37.3087 4.60315V4.60786C37.8457 5.14539 38.2718 5.78354 38.5624 6.48587C38.853 7.18821 39.0025 7.94097 39.0025 8.70117C39.0025 9.46137 38.853 10.2141 38.5624 10.9164C38.2718 11.6188 37.8457 12.2569 37.3087 12.7945L33.2192 16.8881L29.1286 12.7945C28.0437 11.7081 27.4341 10.2349 27.4341 8.69881C27.4341 7.1627 28.0437 5.68949 29.1286 4.60315ZM12.7688 37.3606C11.9597 38.1709 10.9288 38.7225 9.80644 38.9461C8.6841 39.1699 7.52068 39.0551 6.46338 38.617C5.40608 38.1786 4.50237 37.4365 3.86652 36.484C3.2307 35.5316 2.89133 34.4119 2.89133 33.2664C2.89133 32.121 3.2307 31.0013 3.86652 30.0489C4.50237 29.0965 5.40608 28.3542 6.46338 27.9159C7.52068 27.4777 8.6841 27.3632 9.80644 27.5867C10.9288 27.8103 11.9597 28.3622 12.7688 29.1722L16.7933 33.3245L12.7688 37.3606ZM16.8528 29.1699L16.1702 28.4847C15.3807 27.3701 15.0103 26.0121 15.1243 24.6507C15.2383 23.2892 15.8295 22.012 16.7933 21.0445C17.8669 22.1198 18.475 23.5747 18.4861 25.0949C18.4972 26.6153 17.9106 28.0789 16.8528 29.1699ZM16.7957 16.9478L12.7044 12.8534C11.8956 12.0438 11.3449 11.0124 11.1217 9.88947C10.8986 8.76656 11.0131 7.60266 11.4509 6.54493C11.8886 5.48719 12.6298 4.58313 13.5809 3.94707C14.5319 3.31103 15.65 2.97152 16.7938 2.97152C17.9376 2.97152 19.0557 3.31103 20.0067 3.94707C20.9578 4.58313 21.699 5.48719 22.1367 6.54493C22.5744 7.60266 22.6891 8.76656 22.4659 9.88947C22.2428 11.0124 21.692 12.0438 20.8832 12.8534L16.7957 16.9478ZM20.9517 33.2662C22.0402 32.2077 23.5012 31.6204 25.0189 31.6311C26.5366 31.6417 27.9892 32.2494 29.0628 33.3231C27.9742 34.3816 26.5133 34.9691 24.9956 34.9584C23.4779 34.9478 22.0253 34.3399 20.9517 33.2662ZM31.174 18.9354C30.3682 19.7418 29.729 20.6992 29.2927 21.753C28.8566 22.8067 28.6323 23.9362 28.6323 25.0767C28.6323 26.2173 28.8566 27.3468 29.2927 28.4004C29.729 29.4543 30.3682 30.4118 31.174 31.2181C29.5461 29.5897 27.3389 28.6747 25.0375 28.6747C22.7361 28.6747 20.5289 29.5897 18.901 31.2181L18.8991 31.216C20.4996 29.5823 21.3916 27.3824 21.3808 25.0943C21.3702 22.8063 20.4579 20.6147 18.8421 18.9962L22.9278 14.9001C23.8802 13.9502 24.5961 12.7892 25.0175 11.5111C25.4425 12.7655 26.1506 13.9049 27.0869 14.841L31.174 18.935V18.9354ZM33.2175 20.9809C34.3014 22.0672 34.9102 23.54 34.9102 25.0753C34.9102 26.6106 34.3014 28.0834 33.2175 29.1697V29.172C32.134 28.0848 31.5257 26.6121 31.5259 25.0765C31.5259 23.541 32.1345 22.068 33.2179 20.9811L33.2175 20.9809ZM45.4266 37.4208C44.8895 37.9585 44.2522 38.3852 43.5504 38.6763C42.8487 38.9672 42.0965 39.1171 41.3371 39.1171C40.5775 39.1171 39.8253 38.9672 39.1235 38.6763C38.4218 38.3852 37.7844 37.9585 37.2474 37.4208L33.1577 33.3264L37.2472 29.2307V29.2288C38.3325 28.1431 39.8042 27.5336 41.3385 27.534C42.873 27.5344 44.3443 28.145 45.429 29.2313C46.5135 30.3175 47.1227 31.7906 47.1223 33.3266C47.1219 34.8623 46.5119 36.335 45.4266 37.4208Z" fill="white"/>
</svg>
